<svg width="32.000000" height="32.000000" viewBox="0 0 32 32" fill="none" xmlns="http://www.w3.org/2000/svg" xmlns:xlink="http://www.w3.org/1999/xlink">
	<desc>
			Created with Pixso.
	</desc>
	<defs>
		<clipPath id="clip3793_315">
			<rect id="coins" width="32.000000" height="32.000000" fill="white" fill-opacity="0"/>
		</clipPath>
	</defs>
	<rect id="coins" width="32.000000" height="32.000000" fill="#FFFFFF" fill-opacity="0"/>
	<g clip-path="url(#clip3793_315)">
		<path id="Vector" d="M28.29 16C28.95 15.26 29.32 14.32 29.33 13.33C29.33 12.27 28.91 11.25 28.16 10.5C27.41 9.75 26.39 9.33 25.33 9.33L18.42 9.33C18.63 8.73 18.7 8.08 18.61 7.45C18.53 6.82 18.29 6.21 17.92 5.69C17.55 5.17 17.06 4.74 16.5 4.45C15.93 4.15 15.3 4 14.66 4L6.66 4C5.6 4 4.58 4.42 3.83 5.17C3.08 5.92 2.66 6.93 2.66 8C2.67 8.98 3.04 9.93 3.7 10.66C3.05 11.4 2.68 12.34 2.68 13.33C2.68 14.31 3.05 15.26 3.7 16C3.05 16.73 2.68 17.68 2.68 18.66C2.68 19.65 3.05 20.6 3.7 21.33C3.04 22.06 2.67 23.01 2.66 24C2.66 25.06 3.08 26.07 3.83 26.82C4.58 27.57 5.6 28 6.66 28L25.33 28C26.1 27.99 26.85 27.76 27.5 27.34C28.14 26.92 28.65 26.32 28.96 25.62C29.28 24.91 29.38 24.13 29.26 23.37C29.14 22.61 28.8 21.9 28.29 21.33C28.94 20.6 29.31 19.65 29.31 18.66C29.31 17.68 28.94 16.73 28.29 16ZM14.66 25.33L6.66 25.33C6.31 25.33 5.97 25.19 5.72 24.94C5.47 24.69 5.33 24.35 5.33 24C5.33 23.64 5.47 23.3 5.72 23.05C5.97 22.8 6.31 22.66 6.66 22.66L14.66 22.66C15.02 22.66 15.35 22.8 15.6 23.05C15.85 23.3 16 23.64 16 24C16 24.35 15.85 24.69 15.6 24.94C15.35 25.19 15.02 25.33 14.66 25.33ZM14.66 20L6.66 20C6.31 20 5.97 19.85 5.72 19.6C5.47 19.35 5.33 19.02 5.33 18.66C5.33 18.31 5.47 17.97 5.72 17.72C5.97 17.47 6.31 17.33 6.66 17.33L14.66 17.33C15.02 17.33 15.35 17.47 15.6 17.72C15.85 17.97 16 18.31 16 18.66C16 19.02 15.85 19.35 15.6 19.6C15.35 19.85 15.02 20 14.66 20ZM14.66 14.66L6.66 14.66C6.31 14.66 5.97 14.52 5.72 14.27C5.47 14.02 5.33 13.68 5.33 13.33C5.33 12.97 5.47 12.64 5.72 12.39C5.97 12.14 6.31 12 6.66 12L14.66 12C15.02 12 15.35 12.14 15.6 12.39C15.85 12.64 16 12.97 16 13.33C16 13.68 15.85 14.02 15.6 14.27C15.35 14.52 15.02 14.66 14.66 14.66ZM14.66 9.33L6.66 9.33C6.31 9.33 5.97 9.19 5.72 8.94C5.47 8.69 5.33 8.35 5.33 8C5.33 7.64 5.47 7.3 5.72 7.05C5.97 6.8 6.31 6.66 6.66 6.66L14.66 6.66C15.02 6.66 15.35 6.8 15.6 7.05C15.85 7.3 16 7.64 16 8C16 8.35 15.85 8.69 15.6 8.94C15.35 9.19 15.02 9.33 14.66 9.33ZM26.25 24.94C26.13 25.07 25.99 25.17 25.83 25.23C25.67 25.3 25.5 25.33 25.33 25.33L18.42 25.33C18.74 24.47 18.74 23.52 18.42 22.66L25.33 22.66C25.68 22.66 26.02 22.8 26.27 23.05C26.52 23.3 26.66 23.64 26.66 24C26.66 24.17 26.62 24.35 26.55 24.51C26.48 24.67 26.38 24.82 26.25 24.94ZM26.25 19.61C26.13 19.73 25.99 19.83 25.83 19.9C25.67 19.96 25.5 20 25.33 20L18.42 20C18.74 19.13 18.74 18.19 18.42 17.33L25.33 17.33C25.68 17.33 26.02 17.47 26.27 17.72C26.52 17.97 26.66 18.31 26.66 18.66C26.66 18.84 26.62 19.01 26.55 19.18C26.48 19.34 26.38 19.49 26.25 19.61ZM26.25 14.28C26.13 14.4 25.99 14.5 25.83 14.56C25.67 14.63 25.5 14.66 25.33 14.66L18.42 14.66C18.74 13.8 18.74 12.86 18.42 12L25.33 12C25.68 12 26.02 12.14 26.27 12.39C26.52 12.64 26.66 12.97 26.66 13.33C26.66 13.51 26.62 13.68 26.55 13.84C26.48 14.01 26.38 14.15 26.25 14.28Z" fill="#FFE600" fill-opacity="1.000000" fill-rule="nonzero"/>
	</g>
</svg>
