<svg width="26.000000" height="26.000000" viewBox="0 0 26 26" fill="none" xmlns="http://www.w3.org/2000/svg" xmlns:xlink="http://www.w3.org/1999/xlink">
	<desc>
			Created with Pixso.
	</desc>
	<defs>
		<clipPath id="clip3793_304">
			<rect id="palette" width="26.000000" height="26.000000" fill="white" fill-opacity="0"/>
		</clipPath>
	</defs>
	<rect id="palette" width="26.000000" height="26.000000" fill="#FFFFFF" fill-opacity="0"/>
	<g clip-path="url(#clip3793_304)">
		<path id="Vector" d="M8.03 16.83C7.83 17.03 7.72 17.31 7.72 17.59C7.72 17.88 7.83 18.15 8.03 18.36C8.13 18.46 8.25 18.54 8.39 18.59C8.52 18.65 8.66 18.68 8.8 18.68C8.95 18.68 9.09 18.65 9.22 18.59C9.35 18.54 9.47 18.46 9.57 18.36C9.77 18.15 9.89 17.88 9.89 17.59C9.89 17.31 9.77 17.03 9.57 16.83C9.47 16.73 9.35 16.65 9.22 16.59C9.09 16.54 8.95 16.51 8.8 16.51C8.66 16.51 8.52 16.54 8.39 16.59C8.25 16.65 8.13 16.73 8.03 16.83ZM8.03 7.63C7.83 7.84 7.72 8.11 7.72 8.4C7.72 8.68 7.83 8.96 8.03 9.16C8.13 9.26 8.25 9.34 8.39 9.4C8.52 9.45 8.66 9.48 8.8 9.48C8.95 9.48 9.09 9.45 9.22 9.4C9.35 9.34 9.47 9.26 9.57 9.16C9.77 8.96 9.89 8.68 9.89 8.4C9.89 8.11 9.77 7.84 9.57 7.63C9.47 7.53 9.35 7.45 9.22 7.4C9.09 7.34 8.95 7.31 8.8 7.31C8.66 7.31 8.52 7.34 8.39 7.4C8.25 7.45 8.13 7.53 8.03 7.63ZM13.4 18.47C13.18 18.47 12.97 18.53 12.79 18.65C12.62 18.77 12.48 18.94 12.39 19.13C12.31 19.33 12.29 19.55 12.33 19.76C12.37 19.97 12.48 20.16 12.63 20.32C12.78 20.47 12.97 20.57 13.18 20.61C13.39 20.65 13.61 20.63 13.81 20.55C14.01 20.47 14.18 20.33 14.3 20.15C14.42 19.97 14.48 19.76 14.48 19.55C14.49 19.4 14.46 19.26 14.41 19.12C14.36 18.98 14.28 18.85 14.18 18.75C14.08 18.64 13.96 18.56 13.82 18.5C13.69 18.44 13.54 18.41 13.4 18.41L13.4 18.47ZM6.9 11.97C6.68 11.97 6.47 12.03 6.29 12.15C6.12 12.27 5.98 12.44 5.89 12.63C5.81 12.83 5.79 13.05 5.83 13.26C5.87 13.47 5.98 13.66 6.13 13.82C6.28 13.97 6.47 14.07 6.68 14.11C6.89 14.15 7.11 14.13 7.31 14.05C7.51 13.97 7.68 13.83 7.8 13.65C7.92 13.47 7.98 13.26 7.98 13.05C7.99 12.9 7.96 12.76 7.91 12.62C7.86 12.48 7.78 12.35 7.68 12.25C7.58 12.14 7.46 12.06 7.32 12C7.19 11.94 7.04 11.91 6.9 11.91L6.9 11.97ZM13.4 5.47C13.18 5.47 12.97 5.53 12.79 5.65C12.62 5.77 12.48 5.94 12.39 6.13C12.31 6.33 12.29 6.55 12.33 6.76C12.37 6.97 12.48 7.16 12.63 7.32C12.78 7.47 12.97 7.57 13.18 7.61C13.39 7.65 13.61 7.63 13.81 7.55C14.01 7.47 14.18 7.33 14.3 7.15C14.42 6.97 14.48 6.76 14.48 6.55C14.49 6.4 14.46 6.26 14.41 6.12C14.36 5.98 14.28 5.85 14.18 5.75C14.08 5.64 13.96 5.56 13.82 5.5C13.69 5.44 13.54 5.41 13.4 5.41L13.4 5.47ZM17.23 7.69C17.08 7.84 16.97 8.03 16.93 8.24C16.89 8.45 16.91 8.67 16.99 8.87C17.08 9.07 17.21 9.24 17.39 9.36C17.57 9.47 17.78 9.54 17.99 9.54C18.21 9.54 18.42 9.47 18.6 9.36C18.78 9.24 18.91 9.07 19 8.87C19.08 8.67 19.1 8.45 19.06 8.24C19.01 8.03 18.91 7.84 18.76 7.69C18.56 7.48 18.29 7.35 18.01 7.34C17.72 7.33 17.44 7.44 17.23 7.63L17.23 7.69ZM24.06 7.69C23.07 5.71 21.54 4.04 19.66 2.88C17.78 1.72 15.6 1.1 13.39 1.1C11.18 1.1 9.01 1.72 7.12 2.89C5.24 4.05 3.72 5.72 2.73 7.7C1.75 9.68 1.33 11.9 1.53 14.1C1.73 16.31 2.54 18.41 3.87 20.18C5.21 21.95 7 23.31 9.07 24.12C11.13 24.92 13.37 25.14 15.55 24.74C16.1 24.64 16.62 24.42 17.09 24.12C17.55 23.81 17.95 23.41 18.26 22.95C18.59 22.45 18.82 21.88 18.94 21.29C19.05 20.7 19.05 20.09 18.92 19.5C18.85 19.14 18.82 18.78 18.81 18.41C18.82 17.36 19.13 16.34 19.7 15.46C20.28 14.58 21.1 13.89 22.06 13.47C22.58 13.24 23.05 12.9 23.43 12.48C23.81 12.06 24.11 11.57 24.29 11.03C24.48 10.49 24.56 9.9 24.52 9.33C24.48 8.75 24.32 8.18 24.06 7.66L24.06 7.69ZM22.21 10.33C22.12 10.59 21.98 10.83 21.79 11.03C21.61 11.23 21.38 11.4 21.13 11.51C19.8 12.11 18.67 13.08 17.87 14.3C17.08 15.52 16.65 16.95 16.65 18.41C16.65 18.92 16.7 19.43 16.8 19.93C16.86 20.23 16.87 20.55 16.81 20.86C16.75 21.16 16.63 21.46 16.46 21.72C16.32 21.94 16.12 22.14 15.9 22.29C15.67 22.44 15.42 22.54 15.15 22.58C14.57 22.69 13.98 22.75 13.4 22.75C12.09 22.75 10.8 22.48 9.59 21.97C8.39 21.47 7.3 20.72 6.39 19.78C5.48 18.85 4.77 17.73 4.3 16.52C3.83 15.3 3.61 14 3.65 12.69C3.73 10.26 4.72 7.94 6.41 6.19C8.11 4.45 10.4 3.4 12.83 3.25L13.38 3.25C15.2 3.25 16.98 3.75 18.52 4.71C20.06 5.67 21.31 7.04 22.12 8.66C22.37 9.18 22.4 9.77 22.21 10.31L22.21 10.33ZM13.4 11.91C13.18 11.91 12.97 11.98 12.79 12.09C12.62 12.21 12.48 12.38 12.39 12.58C12.31 12.78 12.29 13 12.33 13.21C12.37 13.42 12.48 13.61 12.63 13.76C12.78 13.91 12.97 14.02 13.18 14.06C13.39 14.1 13.61 14.08 13.81 14C14.01 13.91 14.18 13.78 14.3 13.6C14.42 13.42 14.48 13.21 14.48 13C14.48 12.71 14.37 12.43 14.16 12.23C13.96 12.03 13.68 11.91 13.4 11.91Z" fill="#11BDF3" fill-opacity="1.000000" fill-rule="nonzero"/>
	</g>
</svg>
