<svg width="32.000000" height="32.000000" viewBox="0 0 32 32" fill="none" xmlns="http://www.w3.org/2000/svg" xmlns:xlink="http://www.w3.org/1999/xlink">
	<desc>
			Created with Pixso.
	</desc>
	<defs>
		<clipPath id="clip3793_340">
			<rect id="heartbeat" width="32.000000" height="32.000000" fill="white" fill-opacity="0"/>
		</clipPath>
	</defs>
	<rect id="heartbeat" width="32.000000" height="32.000000" fill="#FFFFFF" fill-opacity="0"/>
	<g clip-path="url(#clip3793_340)">
		<path id="Vector" d="M28 13.87L24.66 13.87C24.49 13.88 24.31 13.91 24.15 13.98C23.99 14.05 23.84 14.15 23.72 14.28L22.06 15.99L18.33 11.74C18.2 11.61 18.05 11.5 17.89 11.43C17.72 11.36 17.54 11.32 17.36 11.32C17.17 11.32 16.99 11.36 16.83 11.43C16.66 11.5 16.51 11.61 16.38 11.74L14.12 14.01L12 14.01C11.64 14.01 11.3 14.15 11.05 14.4C10.8 14.65 10.66 14.99 10.66 15.34C10.66 15.7 10.8 16.03 11.05 16.28C11.3 16.53 11.64 16.67 12 16.67L14.66 16.67C14.84 16.68 15.01 16.64 15.17 16.58C15.34 16.51 15.48 16.41 15.61 16.29L17.33 14.5L21.06 18.75C21.18 18.89 21.33 19 21.5 19.08C21.66 19.16 21.84 19.2 22.02 19.21C22.2 19.21 22.37 19.18 22.53 19.11C22.7 19.04 22.84 18.95 22.97 18.82L25.24 16.54L28 16.54C28.35 16.54 28.69 16.4 28.94 16.15C29.19 15.9 29.33 15.56 29.33 15.21C29.33 14.85 29.19 14.52 28.94 14.27C28.69 14.02 28.35 13.87 28 13.87ZM18.14 20.94L15.61 23.47C15.48 23.6 15.34 23.7 15.17 23.77C15.01 23.83 14.84 23.87 14.66 23.87C14.49 23.87 14.31 23.83 14.15 23.77C13.99 23.7 13.84 23.6 13.72 23.47L6.77 16.53C6.31 16.07 5.95 15.53 5.7 14.93C5.45 14.33 5.33 13.69 5.33 13.05C5.33 12.4 5.45 11.76 5.7 11.16C5.95 10.57 6.31 10.03 6.77 9.57C7.69 8.65 8.94 8.13 10.24 8.13C11.54 8.13 12.79 8.65 13.72 9.57C13.84 9.69 13.99 9.79 14.15 9.86C14.31 9.93 14.49 9.96 14.66 9.96C14.84 9.96 15.01 9.93 15.17 9.86C15.34 9.79 15.48 9.69 15.61 9.57C16.55 8.68 17.79 8.18 19.08 8.18C20.37 8.18 21.62 8.68 22.56 9.57C22.85 9.87 23.11 10.21 23.33 10.57C23.52 10.84 23.81 11.02 24.13 11.09C24.46 11.16 24.79 11.1 25.08 10.94C25.36 10.77 25.58 10.5 25.68 10.19C25.78 9.88 25.76 9.54 25.62 9.23C25.29 8.69 24.9 8.18 24.45 7.73C23.18 6.45 21.5 5.66 19.71 5.51C17.92 5.35 16.13 5.84 14.66 6.89C13.53 6.07 12.19 5.59 10.8 5.48C9.41 5.38 8.02 5.66 6.78 6.3C5.54 6.93 4.49 7.9 3.77 9.09C3.04 10.28 2.66 11.65 2.66 13.05C2.66 14.04 2.86 15.02 3.24 15.94C3.62 16.85 4.18 17.68 4.89 18.38L11.84 25.33C12.59 26.08 13.6 26.5 14.66 26.5C15.72 26.5 16.74 26.08 17.49 25.33L20 22.82C20.24 22.57 20.38 22.23 20.38 21.88C20.38 21.53 20.24 21.19 20 20.94C19.75 20.7 19.41 20.57 19.07 20.57C18.72 20.57 18.39 20.7 18.14 20.94Z" fill="#FF004D" fill-opacity="1.000000" fill-rule="nonzero"/>
	</g>
</svg>
