<svg width="32.000000" height="32.000000" viewBox="0 0 32 32" fill="none" xmlns="http://www.w3.org/2000/svg" xmlns:xlink="http://www.w3.org/1999/xlink">
	<desc>
			Created with Pixso.
	</desc>
	<defs>
		<clipPath id="clip3793_330">
			<rect id="medal" width="32.000000" height="32.000000" fill="white" fill-opacity="0"/>
		</clipPath>
	</defs>
	<rect id="medal" width="32.000000" height="32.000000" fill="#FFFFFF" fill-opacity="0"/>
	<g clip-path="url(#clip3793_330)">
		<path id="Vector" d="M28.5 7.68C28.46 7.5 28.38 7.35 28.27 7.21C28.16 7.07 28.03 6.95 27.87 6.86L20.94 2.86C20.79 2.77 20.62 2.72 20.45 2.69C20.28 2.67 20.1 2.68 19.93 2.72C19.76 2.77 19.6 2.84 19.46 2.95C19.32 3.06 19.2 3.19 19.12 3.34L16 8.76L12.87 3.34C12.79 3.19 12.67 3.06 12.53 2.95C12.39 2.84 12.23 2.77 12.06 2.72C11.89 2.68 11.71 2.67 11.54 2.69C11.37 2.72 11.2 2.77 11.05 2.86L4.12 6.86C3.96 6.95 3.83 7.07 3.72 7.21C3.61 7.35 3.53 7.5 3.49 7.68C3.4 8.01 3.45 8.37 3.62 8.68L8.95 17.78C8.36 18.87 8.03 20.09 8 21.33C7.99 22.54 8.26 23.74 8.79 24.83C9.32 25.92 10.08 26.87 11.03 27.62C11.98 28.38 13.09 28.9 14.27 29.16C15.46 29.42 16.68 29.41 17.86 29.13C19.04 28.85 20.14 28.3 21.07 27.53C22.01 26.76 22.76 25.79 23.26 24.69C23.77 23.59 24.02 22.39 23.99 21.18C23.97 19.97 23.67 18.78 23.12 17.7L28.32 8.69C28.41 8.54 28.48 8.37 28.51 8.2C28.54 8.03 28.54 7.85 28.5 7.68ZM6.66 8.5L11.28 5.84L15.57 13.33C13.74 13.44 12 14.19 10.66 15.44L6.66 8.5ZM16 26.66C14.58 26.66 13.22 26.1 12.22 25.1C11.22 24.1 10.66 22.74 10.66 21.33C10.66 19.91 11.22 18.56 12.22 17.56C13.22 16.56 14.58 16 16 16C17.41 16 18.77 16.56 19.77 17.56C20.77 18.56 21.33 19.91 21.33 21.33C21.33 22.74 20.77 24.1 19.77 25.1C18.77 26.1 17.41 26.66 16 26.66ZM21.33 15.4C20.6 14.73 19.76 14.21 18.85 13.86L17.54 11.42L20.77 5.84L25.38 8.5L21.33 15.4Z" fill="#F37E11" fill-opacity="1.000000" fill-rule="nonzero"/>
	</g>
</svg>
