<svg width="32.000000" height="32.000000" viewBox="0 0 32 32" fill="none" xmlns="http://www.w3.org/2000/svg" xmlns:xlink="http://www.w3.org/1999/xlink">
	<desc>
			Created with Pixso.
	</desc>
	<defs>
		<clipPath id="clip3793_310">
			<rect id="bag" width="32.000000" height="32.000000" fill="white" fill-opacity="0"/>
		</clipPath>
	</defs>
	<rect id="bag" width="32.000000" height="32.000000" fill="#FFFFFF" fill-opacity="0"/>
	<g clip-path="url(#clip3793_310)">
		<path id="Vector" d="M25.33 8L21.33 8L21.33 6.66C21.33 5.95 21.05 5.28 20.55 4.78C20.05 4.28 19.37 4 18.66 4L13.33 4C12.62 4 11.94 4.28 11.44 4.78C10.94 5.28 10.66 5.95 10.66 6.66L10.66 8L6.66 8C5.6 8 4.58 8.42 3.83 9.17C3.08 9.92 2.66 10.93 2.66 12L2.66 24C2.66 25.06 3.08 26.07 3.83 26.82C4.58 27.57 5.6 28 6.66 28L25.33 28C26.39 28 27.41 27.57 28.16 26.82C28.91 26.07 29.33 25.06 29.33 24L29.33 12C29.33 10.93 28.91 9.92 28.16 9.17C27.41 8.42 26.39 8 25.33 8ZM13.33 6.66L18.66 6.66L18.66 8L13.33 8L13.33 6.66ZM26.66 24C26.66 24.35 26.52 24.69 26.27 24.94C26.02 25.19 25.68 25.33 25.33 25.33L6.66 25.33C6.31 25.33 5.97 25.19 5.72 24.94C5.47 24.69 5.33 24.35 5.33 24L5.33 16.52L11.57 18.66C11.71 18.68 11.85 18.68 12 18.66L20 18.66C20.14 18.66 20.28 18.64 20.42 18.6L26.66 16.52L26.66 24ZM26.66 13.7L19.78 16L12.21 16L5.33 13.7L5.33 12C5.33 11.64 5.47 11.3 5.72 11.05C5.97 10.8 6.31 10.66 6.66 10.66L25.33 10.66C25.68 10.66 26.02 10.8 26.27 11.05C26.52 11.3 26.66 11.64 26.66 12L26.66 13.7Z" fill="#EB3B3B" fill-opacity="1.000000" fill-rule="nonzero"/>
	</g>
</svg>
