<svg width="32.000000" height="32.000000" viewBox="0 0 32 32" fill="none" xmlns="http://www.w3.org/2000/svg" xmlns:xlink="http://www.w3.org/1999/xlink">
	<desc>
			Created with Pixso.
	</desc>
	<defs>
		<clipPath id="clip3793_335">
			<rect id="shield" width="32.000000" height="32.000000" fill="white" fill-opacity="0"/>
		</clipPath>
	</defs>
	<rect id="shield" width="32.000000" height="32.000000" fill="#FFFFFF" fill-opacity="0"/>
	<g clip-path="url(#clip3793_335)">
		<path id="Vector" d="M26.17 4.86C26.01 4.74 25.83 4.65 25.64 4.6C25.44 4.56 25.24 4.55 25.05 4.6C23.62 4.89 22.15 4.9 20.73 4.61C19.3 4.32 17.95 3.73 16.75 2.9C16.53 2.75 16.27 2.66 16 2.66C15.72 2.66 15.46 2.75 15.23 2.9C14.04 3.73 12.69 4.32 11.26 4.61C9.84 4.9 8.37 4.89 6.94 4.6C6.75 4.55 6.54 4.56 6.35 4.6C6.16 4.65 5.98 4.74 5.82 4.86C5.67 4.99 5.54 5.15 5.46 5.33C5.37 5.51 5.33 5.7 5.33 5.9L5.33 15.84C5.33 17.75 5.78 19.63 6.66 21.33C7.53 23.03 8.8 24.5 10.35 25.61L15.22 29.08C15.45 29.24 15.72 29.32 16 29.32C16.27 29.32 16.54 29.24 16.77 29.08L21.63 25.61C23.19 24.5 24.46 23.03 25.33 21.33C26.21 19.63 26.66 17.75 26.66 15.84L26.66 5.9C26.66 5.7 26.62 5.51 26.53 5.33C26.45 5.15 26.32 4.99 26.17 4.86ZM24 15.84C24 17.32 23.64 18.79 22.96 20.11C22.28 21.43 21.3 22.57 20.09 23.44L16 26.36L11.9 23.44C10.69 22.57 9.71 21.43 9.03 20.11C8.35 18.79 7.99 17.32 8 15.84L8 7.44C10.79 7.67 13.59 7.03 16 5.58C18.4 7.03 21.2 7.67 24 7.44L24 15.84Z" fill="#9DA7BB" fill-opacity="1.000000" fill-rule="nonzero"/>
	</g>
</svg>
